# xmcd
#
# Track frame offsets: 
#        150
#        31699
#        61678
#        99674
#        133687
#        171673
#        212017
#        251244
#        281161
#        318402
#
# Disc length: 4514 seconds
#
# Revision: 0
# Processed by: cddbd v1.5.2PL0 Copyright (c) Steve Scherf et al.
# Submitted via: ExactAudioCopy v0.99pb4
#
DISCID=9411a00a
DTITLE=Indra - Global Music
DYEAR=2008
DGENRE=Psychedelic
TTITLE0=Seek Irony - Tech N Roll (Indra Remix)
TTITLE1=Indra - Musica Electronika
TTITLE2=Yahel - Soul (Indra Remix)
TTITLE3=Indra - High Quality
TTITLE4=Team 18 - Batucada (Indra Remix)
TTITLE5=Indra - Loose Control
TTITLE6=Indra vs Beat Hackers - All Filters Up (Indra Remix)
TTITLE7=Indra - Take The Time
TTITLE8=Indra - Break The Ground
TTITLE9=Indra - Logistic
EXTD=
EXTT0=
EXTT1=
EXTT2=
EXTT3=
EXTT4=
EXTT5=
EXTT6=
EXTT7=
EXTT8=
EXTT9=
PLAYORDER=
